<svg xmlns="http://www.w3.org/2000/svg" width="17.659" height="17.648" viewBox="0 0 17.659 17.648">
  <path id="Path_12221" data-name="Path 12221" d="M126.292,62.045a5.633,5.633,0,0,1,2.845-5.359c.2-.066.529-.463,1.853,1.191,1.257,1.654,2.183,2.977,1.389,3.705-.86.728-2.117,1.654-1.456,2.911a21.337,21.337,0,0,0,5.029,5.028c1.323.662,2.183-.6,2.911-1.389.728-.86,2.117.066,3.771,1.323,1.654,1.323,1.257,1.654,1.191,1.919A5.923,5.923,0,0,1,138.4,74.22c-3.573-.4-11.777-8.6-12.108-12.174Z" transform="translate(-126.255 -56.597)" fill="#f8f8f8" fill-rule="evenodd"/>
</svg>
