<svg xmlns="http://www.w3.org/2000/svg" width="146" height="59.156" viewBox="0 0 146 59.156">
  <g id="Group_2569" data-name="Group 2569" transform="translate(-2788.327 -1692.761)">
    <path id="Path_12228" data-name="Path 12228" d="M2818.926,1772.131V1756.8a14.885,14.885,0,0,0-1.192-5.963,15.387,15.387,0,0,0-8.11-8.11,15.42,15.42,0,0,0-11.892,0,15.739,15.739,0,0,0-4.907,3.271,15.148,15.148,0,0,0-3.305,4.839,15.417,15.417,0,0,0,0,11.891,15.453,15.453,0,0,0,8.212,8.212,14.937,14.937,0,0,0,5.929,1.193Zm-21.841-8.757a9.291,9.291,0,0,1-2.692-6.576,8.99,8.99,0,0,1,.716-3.578,9.267,9.267,0,0,1,1.976-2.93,9.289,9.289,0,0,1,6.576-2.692,8.991,8.991,0,0,1,3.578.715,9.26,9.26,0,0,1,4.906,4.907,8.99,8.99,0,0,1,.716,3.578v9.268h-9.2a9.289,9.289,0,0,1-6.576-2.692Z" transform="translate(0 -36.642)" fill="#515a68"/>
    <path id="Path_12229" data-name="Path 12229" d="M2922.974,1731.128a15.4,15.4,0,0,0,4.907,3.305,15.417,15.417,0,0,0,11.892,0,15.144,15.144,0,0,0,4.838-3.305,15.728,15.728,0,0,0,3.271-4.907,15.421,15.421,0,0,0,0-11.892,15.386,15.386,0,0,0-8.109-8.11,14.889,14.889,0,0,0-5.963-1.192h-9.268v-12.267h-6.065v27.532a14.936,14.936,0,0,0,1.192,5.929A15.406,15.406,0,0,0,2922.974,1731.128Zm1.567-20.036h9.268a8.994,8.994,0,0,1,3.578.716,9.264,9.264,0,0,1,4.907,4.907,8.991,8.991,0,0,1,.715,3.578,9.214,9.214,0,0,1-5.622,8.552,8.992,8.992,0,0,1-3.578.715,9.217,9.217,0,0,1-9.268-9.268Z" transform="translate(-97.779)" fill="#515a68"/>
    <path id="Path_12230" data-name="Path 12230" d="M3079.968,1746a15.457,15.457,0,0,0-4.839-3.271,15.419,15.419,0,0,0-11.892,0,15.733,15.733,0,0,0-4.907,3.271,15.148,15.148,0,0,0-3.305,4.839,15.42,15.42,0,0,0,0,11.891,15.453,15.453,0,0,0,8.212,8.212,14.936,14.936,0,0,0,5.928,1.193h8.723a9.241,9.241,0,0,1-3.305,4.464,8.875,8.875,0,0,1-5.418,1.738H3066.1v6.065h3.066a14.883,14.883,0,0,0,5.963-1.193,15.176,15.176,0,0,0,4.839-3.305,15.862,15.862,0,0,0,3.271-4.873,14.875,14.875,0,0,0,1.193-5.963V1756.8a14.877,14.877,0,0,0-1.193-5.963A15.45,15.45,0,0,0,3079.968,1746Zm-1.533,20.07h-9.269a9.218,9.218,0,0,1-9.268-9.268,8.99,8.99,0,0,1,.716-3.578,9.267,9.267,0,0,1,1.976-2.93,9.355,9.355,0,0,1,13.152,0,9.284,9.284,0,0,1,1.977,2.93,8.99,8.99,0,0,1,.716,3.578Z" transform="translate(-199.471 -36.642)" fill="#515a68"/>
    <path id="Path_12231" data-name="Path 12231" d="M2798.918,1893.871l-3.959-7.117h-2.11v10.783h2v-7.117l3.959,7.117h2.111v-10.783h-2Z" transform="translate(-3.397 -145.744)" fill="#515a68"/>
    <path id="Path_12232" data-name="Path 12232" d="M2838.452,1892.716h3.743v-1.848h-3.743V1888.6h4.667v-1.849h-6.67v10.783h6.824v-1.849h-4.822Z" transform="translate(-36.154 -145.744)" fill="#515a68"/>
    <path id="Path_12233" data-name="Path 12233" d="M2868.964,1888.6h2.988v8.934h2V1888.6h2.989v-1.849h-7.979Z" transform="translate(-60.581 -145.744)" fill="#515a68"/>
    <path id="Path_12234" data-name="Path 12234" d="M2912.344,1894.688l-2.018-6.793H2908.6l-2.018,6.793-1.8-7.933h-2.126l2.819,10.783h2.033l1.957-6.347,1.956,6.347h2.033l2.819-10.783h-2.126Z" transform="translate(-85.893 -145.744)" fill="#515a68"/>
    <path id="Path_12235" data-name="Path 12235" d="M2969.483,1886.259a5.45,5.45,0,0,0-2.526.586,5.275,5.275,0,0,0-2.557,4.929,6.2,6.2,0,0,0,.708,3.081,4.693,4.693,0,0,0,4.375,2.434,5.441,5.441,0,0,0,2.526-.57,5.334,5.334,0,0,0,2.557-4.945,6.2,6.2,0,0,0-.724-3.081A4.64,4.64,0,0,0,2969.483,1886.259Zm2.172,8.257a2.831,2.831,0,0,1-2.172.924,2.886,2.886,0,0,1-2.187-.924,4.789,4.789,0,0,1,0-5.484,2.886,2.886,0,0,1,2.187-.924,2.831,2.831,0,0,1,2.172.924,4.721,4.721,0,0,1,0,5.484Z" transform="translate(-132.281 -145.372)" fill="#515a68"/>
    <path id="Path_12236" data-name="Path 12236" d="M3021.031,1889.82c0-1.849-1.186-3.066-3.281-3.066h-3.928v10.783h2v-4.652h1.047l2.9,4.652H3022l-2.989-4.821A2.811,2.811,0,0,0,3021.031,1889.82Zm-3.266,1.217h-1.941V1888.6h1.941c.847,0,1.263.4,1.263,1.217S3018.613,1891.037,3017.766,1891.037Z" transform="translate(-169.411 -145.744)" fill="#515a68"/>
    <path id="Path_12237" data-name="Path 12237" d="M3060.617,1886.754h-2.465l-3.682,4.005v-4.005h-2v10.783h2v-5.145l3.913,5.145h2.542l-4.683-5.961Z" transform="translate(-198.445 -145.744)" fill="#515a68"/>
    <path id="Path_12238" data-name="Path 12238" d="M3203.514,1741.39l-16.583,45.542h7.278l11.509-45.542Z" transform="translate(-299.465 -36.534)" fill="#515a68"/>
    <path id="Path_12239" data-name="Path 12239" d="M3239.442,1786.932h6.935l2.769-45.542h-2.769Z" transform="translate(-338.916 -36.535)" fill="#515a68"/>
    <path id="Path_12240" data-name="Path 12240" d="M3302.015,1741.39h-2.2l11.508,45.542h7.278Z" transform="translate(-384.271 -36.534)" fill="#515a68"/>
    <path id="Path_12241" data-name="Path 12241" d="M3283.818,1741.39l2.769,45.542h6.935l-6.935-45.542Z" transform="translate(-372.255 -36.535)" fill="#515a68"/>
  </g>
</svg>
