<svg xmlns="http://www.w3.org/2000/svg" width="164.025" height="66.459" viewBox="0 0 164.025 66.459">
  <g id="Group_2562" data-name="Group 2562" transform="translate(-2788.327 -1692.761)">
    <path id="Path_12228" data-name="Path 12228" d="M2822.7,1775.909v-17.226a16.721,16.721,0,0,0-1.34-6.7,17.286,17.286,0,0,0-9.111-9.111,17.322,17.322,0,0,0-13.36,0,17.681,17.681,0,0,0-5.512,3.675,17.017,17.017,0,0,0-3.713,5.436,17.321,17.321,0,0,0,0,13.36,17.362,17.362,0,0,0,9.226,9.226,16.782,16.782,0,0,0,6.661,1.34Zm-24.538-9.838a10.438,10.438,0,0,1-3.024-7.388,10.1,10.1,0,0,1,.8-4.019,10.411,10.411,0,0,1,2.22-3.292,10.437,10.437,0,0,1,7.388-3.024,10.1,10.1,0,0,1,4.02.8,10.4,10.4,0,0,1,5.512,5.513,10.1,10.1,0,0,1,.8,4.019v10.412h-10.336a10.437,10.437,0,0,1-7.388-3.024Z" transform="translate(0 -35.144)" fill="#fff"/>
    <path id="Path_12229" data-name="Path 12229" d="M2923.529,1735.865a17.311,17.311,0,0,0,5.512,3.713,17.322,17.322,0,0,0,13.36,0,17.011,17.011,0,0,0,5.436-3.713,17.672,17.672,0,0,0,3.675-5.512,17.325,17.325,0,0,0,0-13.36,17.289,17.289,0,0,0-9.111-9.111,16.727,16.727,0,0,0-6.7-1.339H2925.29v-13.781h-6.814v30.931a16.781,16.781,0,0,0,1.34,6.661A17.314,17.314,0,0,0,2923.529,1735.865Zm1.761-22.509H2935.7a10.105,10.105,0,0,1,4.02.8,10.408,10.408,0,0,1,5.512,5.513,10.1,10.1,0,0,1,.8,4.02,10.352,10.352,0,0,1-6.316,9.608,10.1,10.1,0,0,1-4.02.8,10.356,10.356,0,0,1-10.412-10.412Z" transform="translate(-93.783)" fill="#fff"/>
    <path id="Path_12230" data-name="Path 12230" d="M3083.194,1746.547a17.367,17.367,0,0,0-5.436-3.675,17.322,17.322,0,0,0-13.36,0,17.675,17.675,0,0,0-5.512,3.675,17.017,17.017,0,0,0-3.713,5.436,17.324,17.324,0,0,0,0,13.36,17.362,17.362,0,0,0,9.226,9.226,16.781,16.781,0,0,0,6.66,1.34h9.8a10.383,10.383,0,0,1-3.713,5.015,9.971,9.971,0,0,1-6.087,1.952h-3.445v6.814h3.445a16.72,16.72,0,0,0,6.7-1.34,17.052,17.052,0,0,0,5.436-3.713,17.824,17.824,0,0,0,3.675-5.474,16.715,16.715,0,0,0,1.34-6.7v-13.781a16.717,16.717,0,0,0-1.34-6.7A17.362,17.362,0,0,0,3083.194,1746.547Zm-1.723,22.547h-10.413a10.355,10.355,0,0,1-10.412-10.412,10.1,10.1,0,0,1,.8-4.019,10.411,10.411,0,0,1,2.22-3.292,10.509,10.509,0,0,1,14.776,0,10.428,10.428,0,0,1,2.22,3.292,10.1,10.1,0,0,1,.8,4.019Z" transform="translate(-191.318 -35.144)" fill="#fff"/>
    <path id="Path_12231" data-name="Path 12231" d="M2799.668,1894.75l-4.448-8h-2.371v12.114h2.25v-8l4.448,8h2.371v-12.114h-2.25Z" transform="translate(-3.259 -139.787)" fill="#fff"/>
    <path id="Path_12232" data-name="Path 12232" d="M2838.7,1893.452h4.206v-2.077H2838.7v-2.544h5.244v-2.077h-7.494v12.114h7.667v-2.077H2838.7Z" transform="translate(-34.676 -139.787)" fill="#fff"/>
    <path id="Path_12233" data-name="Path 12233" d="M2868.964,1888.831h3.357v10.037h2.25v-10.037h3.358v-2.077h-8.965Z" transform="translate(-58.105 -139.787)" fill="#fff"/>
    <path id="Path_12234" data-name="Path 12234" d="M2913.54,1895.667l-2.267-7.632h-1.938l-2.267,7.632-2.025-8.913h-2.388l3.167,12.114h2.284l2.2-7.13,2.2,7.13h2.284l3.167-12.114h-2.388Z" transform="translate(-82.382 -139.787)" fill="#fff"/>
    <path id="Path_12235" data-name="Path 12235" d="M2970.111,1886.259a6.122,6.122,0,0,0-2.838.658c-1.678.848-2.873,2.838-2.873,5.538a6.963,6.963,0,0,0,.8,3.461,5.273,5.273,0,0,0,4.915,2.734,6.112,6.112,0,0,0,2.838-.641c1.679-.883,2.873-2.855,2.873-5.555a6.963,6.963,0,0,0-.813-3.461A5.213,5.213,0,0,0,2970.111,1886.259Zm2.44,9.276a3.18,3.18,0,0,1-2.44,1.038,3.242,3.242,0,0,1-2.458-1.038,5.38,5.38,0,0,1,0-6.161,3.242,3.242,0,0,1,2.458-1.038,3.18,3.18,0,0,1,2.44,1.038,5.3,5.3,0,0,1,0,6.161Z" transform="translate(-126.874 -139.43)" fill="#fff"/>
    <path id="Path_12236" data-name="Path 12236" d="M3021.921,1890.2c0-2.077-1.333-3.444-3.686-3.444h-4.413v12.115h2.25v-5.226h1.177l3.254,5.226h2.51l-3.358-5.417A3.158,3.158,0,0,0,3021.921,1890.2Zm-3.669,1.367h-2.181v-2.734h2.181c.952,0,1.419.45,1.419,1.367S3019.2,1891.565,3018.253,1891.565Z" transform="translate(-162.487 -139.787)" fill="#fff"/>
    <path id="Path_12237" data-name="Path 12237" d="M3061.623,1886.754h-2.769l-4.136,4.5v-4.5h-2.25v12.114h2.25v-5.78l4.4,5.78h2.855l-5.261-6.7Z" transform="translate(-190.334 -139.787)" fill="#fff"/>
    <path id="Path_12238" data-name="Path 12238" d="M3205.561,1741.39l-18.63,51.164h8.177l12.929-51.164Z" transform="translate(-287.225 -35.041)" fill="#fff"/>
    <path id="Path_12239" data-name="Path 12239" d="M3239.442,1792.555h7.791l3.111-51.165h-3.111Z" transform="translate(-325.064 -35.041)" fill="#fff"/>
    <path id="Path_12240" data-name="Path 12240" d="M3302.288,1741.39h-2.476l12.928,51.164h8.177Z" transform="translate(-368.565 -35.041)" fill="#fff"/>
    <path id="Path_12241" data-name="Path 12241" d="M3283.818,1741.39l3.111,51.165h7.791l-7.791-51.165Z" transform="translate(-357.04 -35.041)" fill="#fff"/>
  </g>
</svg>
